<?xml version="1.0" encoding="iso-8859-1"?>
<!-- Generator: Adobe Illustrator 19.0.0, SVG Export Plug-In . SVG Version: 6.00 Build 0)  -->
<svg version="1.1" id="Layer_1" xmlns="http://www.w3.org/2000/svg" xmlns:xlink="http://www.w3.org/1999/xlink" x="0px" y="0px"
	 viewBox="0 0 512 512" style="enable-background:new 0 0 512 512;" xml:space="preserve">
<g>
	<g>
		<path d="M255.418,209.455c-25.6,0-46.545,20.945-46.545,46.545c0,25.6,20.945,46.545,46.545,46.545
			c25.6,0,46.545-20.945,46.545-46.545C301.964,230.4,281.018,209.455,255.418,209.455z M255.418,279.273
			c-12.8,0-23.273-10.473-23.273-23.273s10.473-23.273,23.273-23.273S278.691,243.2,278.691,256S268.218,279.273,255.418,279.273z"
			/>
	</g>
</g>
<g>
	<g>
		<path d="M255.418,46.545c-25.6,0-46.545,20.945-46.545,46.545c0,25.6,20.945,46.545,46.545,46.545
			c25.6,0,46.545-20.945,46.545-46.545C301.964,67.491,281.018,46.545,255.418,46.545z M255.418,116.364
			c-12.8,0-23.273-10.473-23.273-23.273c0-12.8,10.473-23.273,23.273-23.273s23.273,10.473,23.273,23.273
			C278.691,105.891,268.218,116.364,255.418,116.364z"/>
	</g>
</g>
<g>
	<g>
		<path d="M255.418,372.364c-25.6,0-46.545,20.945-46.545,46.545c0,25.6,20.945,46.545,46.545,46.545
			c25.6,0,46.545-20.945,46.545-46.545C301.964,393.309,281.018,372.364,255.418,372.364z M255.418,442.182
			c-12.8,0-23.273-10.473-23.273-23.273s10.473-23.273,23.273-23.273s23.273,10.473,23.273,23.273S268.218,442.182,255.418,442.182z
			"/>
	</g>
</g>
<g>
	<g>
		<path d="M441.6,325.818H150.691H69.236c-6.982,0-11.636,4.655-11.636,11.636v11.636c0,18.618,8.145,34.909,22.109,47.709
			l46.545,39.564c8.145,6.982,12.8,17.455,12.8,29.091v11.636c0,19.782,15.127,34.909,34.909,34.909h162.909
			c19.782,0,34.909-15.127,34.909-34.909v-11.636c0-11.636,4.655-22.109,13.964-29.091l46.545-39.564
			c13.964-11.636,22.109-29.091,22.109-47.709v-11.636C453.236,330.473,448.582,325.818,441.6,325.818z M416,378.182l-44.218,38.4
			V384c0-6.982-4.655-11.636-11.636-11.636s-11.636,4.655-11.636,11.636v81.455v11.636c0,6.982-4.655,11.636-11.636,11.636H173.964
			c-6.982,0-11.636-4.655-11.636-11.636v-11.636V384c0-6.982-4.655-11.636-11.636-11.636c-6.982,0-11.636,4.655-11.636,11.636
			v32.582l-44.218-38.4c-9.309-6.982-13.964-17.455-13.964-29.091h69.818h279.273C429.964,360.727,425.309,371.2,416,378.182z"/>
	</g>
</g>
<g>
	<g>
		<path d="M441.6,0h-81.455H150.691H69.236C62.255,0,57.6,4.655,57.6,11.636v11.636c0,18.618,8.145,34.909,22.109,47.709
			l46.545,39.564c8.145,6.982,12.8,17.455,12.8,29.091c0,6.982,4.655,11.636,11.636,11.636c6.982,0,11.636-4.655,11.636-11.636
			V58.182c0-6.982-4.655-11.636-11.636-11.636c-6.982,0-11.636,4.655-11.636,11.636v32.582l-44.218-38.4
			c-9.309-6.982-13.964-17.455-13.964-29.091h69.818h209.455h69.818c0,11.636-4.655,22.109-13.964,29.091l-44.218,38.4V58.182
			c0-6.982-4.655-11.636-11.636-11.636s-11.636,4.655-11.636,11.636v81.455c0,6.982,4.655,11.636,11.636,11.636
			s11.636-4.655,11.636-11.636c0-11.636,4.655-22.109,13.964-29.091l46.545-39.564c12.8-12.8,20.945-29.091,20.945-47.709V11.636
			C453.236,4.655,448.582,0,441.6,0z"/>
	</g>
</g>
<g>
	<g>
		<path d="M441.6,162.909H69.236c-6.982,0-11.636,4.655-11.636,11.636v11.636c0,18.618,8.145,34.909,22.109,47.709l46.545,39.564
			c8.145,6.982,12.8,17.455,12.8,29.091c0,6.982,4.655,11.636,11.636,11.636c6.982,0,11.636-4.655,11.636-11.636v-81.455
			c0-6.982-4.655-11.636-11.636-11.636c-6.982,0-11.636,4.655-11.636,11.636v32.582l-44.218-38.4
			c-9.309-6.982-13.964-17.455-13.964-29.091h349.091c0,11.636-4.655,22.109-13.964,29.091l-44.218,38.4v-32.582
			c0-6.982-4.655-11.636-11.636-11.636s-11.636,4.655-11.636,11.636v81.455c0,6.982,4.655,11.636,11.636,11.636
			s11.636-4.655,11.636-11.636c0-11.636,4.655-22.109,13.964-29.091l46.545-39.564c13.964-11.636,22.109-29.091,22.109-47.709
			v-11.636C453.236,167.564,448.582,162.909,441.6,162.909z"/>
	</g>
</g>
<g>
</g>
<g>
</g>
<g>
</g>
<g>
</g>
<g>
</g>
<g>
</g>
<g>
</g>
<g>
</g>
<g>
</g>
<g>
</g>
<g>
</g>
<g>
</g>
<g>
</g>
<g>
</g>
<g>
</g>
</svg>
